<?xml version="1.0" encoding="UTF-8" standalone="no"?>
<svg width="23px" height="10px" viewBox="0 0 23 10" version="1.1" xmlns="http://www.w3.org/2000/svg" xmlns:xlink="http://www.w3.org/1999/xlink" xmlns:sketch="http://www.bohemiancoding.com/sketch/ns">
    <!-- Generator: Sketch 3.4.4 (17249) - http://www.bohemiancoding.com/sketch -->
    <title>statsup copy 2</title>
    <desc>Created with Sketch.</desc>
    <defs></defs>
    <g id="Lotus" stroke="none" stroke-width="1" fill="none" fill-rule="evenodd" sketch:type="MSPage">
        <g id="Woo---Scores" sketch:type="MSArtboardGroup" transform="translate(-847.000000, -204.000000)" fill="#7F7C7D">
            <g id="SCORES" sketch:type="MSLayerGroup" transform="translate(280.000000, 159.000000)">
                <g id="Breakdown-Score" transform="translate(358.000000, 25.000000)" sketch:type="MSShapeGroup">
                    <g id="indicator" transform="translate(5.000000, 0.000000)">
                        <path d="M207.936353,31.1100065 C207.936353,31.1100065 214.182173,24.8883401 214.463266,24.6097202 L218.247425,20.8588473 C218.52948,20.578319 218.52948,20.1241304 218.247425,19.8445563 L216.92475,18.533516 C216.468456,18.0812358 216.791905,17.309306 217.435915,17.309306 L222.514833,17.309306 C223.129001,17.309306 223.626689,17.8026159 223.626689,18.4104271 L223.625726,23.4446691 C223.625726,24.0839682 222.846946,24.4036178 222.391614,23.9522917 L221.076641,22.6488848 C220.793623,22.3683565 220.336366,22.3683565 220.053348,22.6479306 L214.634616,28.0065931 C214.259185,28.3787224 209.735537,32.8933648 209.735537,32.8933648 C209.243625,33.3809496 208.445592,33.3809496 207.954643,32.8933648 C207.462731,32.4057799 207.444441,31.5975914 207.936353,31.1100065 Z" id="statsup-copy-2" transform="translate(215.601563, 25.284180) rotate(45.000000) translate(-215.601563, -25.284180) "></path>
                    </g>
                </g>
            </g>
        </g>
    </g>
</svg>