<?xml version="1.0" encoding="UTF-8" standalone="no"?>
<svg width="22px" height="11px" viewBox="0 0 22 11" version="1.1" xmlns="http://www.w3.org/2000/svg" xmlns:xlink="http://www.w3.org/1999/xlink" xmlns:sketch="http://www.bohemiancoding.com/sketch/ns">
    <!-- Generator: sketchtool 3.5.1 (25234) - http://www.bohemiancoding.com/sketch -->
    <title>statsup</title>
    <desc>Created with sketchtool.</desc>
    <defs></defs>
    <g id="Lotus" stroke="none" stroke-width="1" fill="none" fill-rule="evenodd" sketch:type="MSPage">
        <g id="Woo---Tags" sketch:type="MSArtboardGroup" transform="translate(-821.000000, -454.000000)" fill="#76CE1E">
            <g id="NPS-Tag-Copy-2" sketch:type="MSLayerGroup" transform="translate(309.000000, 417.000000)">
                <g id="last-month:-32-+-statsup" transform="translate(512.500000, 30.000000)" sketch:type="MSShapeGroup">
                    <path d="M0.378206532,17.6343114 C-0.113705356,17.1467265 -0.131995621,16.3385379 0.359916266,15.8509531 L5.63810194,10.6201505 C6.04337573,10.2174875 6.69990001,10.2174875 7.1051738,10.6201505 L10.8180978,14.3004142 C11.0991903,14.5790341 11.5554843,14.5790341 11.8365768,14.3004142 L15.6207365,10.5495413 C15.9027917,10.2690131 15.9027917,9.81482445 15.6207365,9.53525036 L14.2980615,8.22421009 C13.8417675,7.77192982 14.1652164,7 14.8092263,7 L19.8881444,7 C20.5023122,7 21,7.49330991 21,8.10112116 L20.9990374,13.1353631 C20.9990374,13.7746622 20.2202571,14.0943118 19.7649257,13.6429857 L18.4499519,12.3395789 C18.1669341,12.0590506 17.7096774,12.0590506 17.4266596,12.3386247 L12.0079277,17.6972871 C11.6324959,18.0694164 11.0231413,18.0694164 10.6477095,17.6963329 L6.88087738,13.9626353 C6.59978487,13.6840154 6.14349087,13.6840154 5.86239836,13.9626353 L2.15910084,17.6343114 C1.66718895,18.1218962 0.869155775,18.1218962 0.378206532,17.6343114" id="statsup"></path>
                </g>
            </g>
        </g>
    </g>
</svg>